<svg width="16" height="16" viewBox="0 0 16 16" fill="none" xmlns="http://www.w3.org/2000/svg">
<g clip-path="url(#clip0_246_3)">
<path d="M15.7993 7.81264C16.0894 7.49366 16.0614 7.00475 15.7368 6.72092L8.58618 0.464096C8.26161 0.180264 7.74125 0.18621 7.42352 0.4775L0.248602 7.05451C-0.0691317 7.3458 -0.0847263 7.83408 0.214074 8.14467L0.39396 8.33201C0.692395 8.6426 1.17478 8.67963 1.47072 8.41447L2.00693 7.93427V14.9645C2.00693 15.3958 2.35643 15.745 2.78744 15.745H5.58425C6.01526 15.745 6.36476 15.3958 6.36476 14.9645V10.0462H9.93211V14.9645C9.92591 15.3955 10.2343 15.7447 10.6653 15.7447H13.6292C14.0602 15.7447 14.4097 15.3955 14.4097 14.9641V8.03326C14.4097 8.03326 14.5579 8.16303 14.7406 8.32361C14.923 8.48389 15.306 8.35538 15.5961 8.03608L15.7993 7.81264Z" fill="white" fill-opacity="0.5"/>
</g>
<defs>
<clipPath id="clip0_246_3">
<rect width="16" height="16" fill="white"/>
</clipPath>
</defs>
</svg>
